<svg width="28.000000" height="28.000000" viewBox="0 0 28 28" fill="none" xmlns="http://www.w3.org/2000/svg" xmlns:xlink="http://www.w3.org/1999/xlink">
	<desc>
			Created with Pixso.
	</desc>
	<defs/>
	<g opacity="0.240000">
		<path id="Oval" d="M14 28C21.7319 28 28 21.732 28 14C28 6.26801 21.7319 0 14 0C6.26807 0 0 6.26801 0 14C0 21.732 6.26807 28 14 28Z" fill="#000000" fill-opacity="1.000000" fill-rule="nonzero"/>
	</g>
	<path id="Left Arrow" d="M16.0017 8.66612L16.5364 9.20514C16.7122 9.39201 16.8 9.61013 16.8 9.85921C16.8 10.1133 16.7122 10.329 16.5364 10.5063L13.0719 14L16.5363 17.4937C16.712 17.671 16.7999 17.8867 16.7999 18.1407C16.7999 18.3899 16.712 18.608 16.5363 18.7949L16.0016 19.3268C15.821 19.5089 15.6049 19.6 15.3529 19.6C15.0963 19.6 14.8824 19.5089 14.7114 19.3268L10.0709 14.647C9.89038 14.4744 9.80005 14.2589 9.80005 14C9.80005 13.746 9.89038 13.528 10.0709 13.3459L14.7114 8.66612C14.8873 8.48877 15.1011 8.40001 15.3529 8.40001C15.6001 8.40001 15.8163 8.48877 16.0017 8.66612Z" fill="#FFFFFF" fill-opacity="1.000000" fill-rule="evenodd"/>
</svg>
