<svg width="19.000000" height="20.000000" viewBox="0 0 19 20" fill="none" xmlns="http://www.w3.org/2000/svg" xmlns:xlink="http://www.w3.org/1999/xlink">
	<desc>
			Created with Pixso.
	</desc>
	<defs/>
	<g opacity="0.240000">
		<path id="Combined-Shape" d="M12.7256 3.29626L13.4685 3.72986C13.4685 3.72986 15.6863 3.34277 15.8152 3.33099C16.4863 3.24866 17.209 3.60907 17.5466 4.19385L18.4775 5.80615C18.8167 6.39337 18.7678 7.20251 18.3757 7.71454C18.2847 7.84271 16.8428 9.56952 16.8428 9.56952C16.8428 9.56952 16.8518 9.69702 16.8518 10C16.8518 10.146 16.8394 10.4365 16.8394 10.4365C16.8394 10.4365 18.2847 12.1573 18.3591 12.263C18.7659 12.803 18.8152 13.6091 18.4775 14.1938L17.5466 15.8062C17.2075 16.3934 16.4824 16.7559 15.8364 16.6714C15.8311 16.6709 13.4565 16.269 13.4565 16.269L12.7256 16.7C12.7256 16.7 11.95 18.8147 11.8958 18.9321C11.6313 19.5544 10.958 20 10.2827 20L8.4209 20C7.74292 20 7.06641 19.5532 6.81909 18.9573C6.75366 18.8145 5.97607 16.6921 5.97607 16.6921L5.23071 16.2672C5.23071 16.2672 3.01733 16.6573 2.88843 16.6691C2.21729 16.7513 1.49463 16.3909 1.15698 15.8062L0.226074 14.1938C-0.112793 13.6066 -0.064209 12.7973 0.328125 12.2853C0.419189 12.1572 1.86255 10.429 1.86255 10.429C1.86255 10.429 1.85181 10.303 1.85181 10C1.85181 9.85687 1.86401 9.57202 1.86401 9.57202C1.86401 9.57202 0.419189 7.84283 0.344727 7.73712C-0.0622559 7.19708 -0.111328 6.39093 0.226074 5.80615L1.15698 4.19385C1.49609 3.60663 2.22119 3.24414 2.8606 3.32788C3.01733 3.34265 5.25269 3.73206 5.25269 3.73206L5.98682 3.29572C5.98682 3.29572 6.75366 1.18549 6.80786 1.06812C7.07227 0.44574 7.74585 0 8.4209 0L10.2827 0C10.9607 0 11.6372 0.446716 11.8845 1.04242C11.95 1.1853 12.7256 3.29626 12.7256 3.29626ZM10.9424 4.30505L11.0767 4.75439L11.5081 4.93842C11.9155 5.11237 12.3008 5.33527 12.6548 5.60181L13.0303 5.88422L13.4873 5.7757C14.1511 5.61798 15.7117 5.35657 15.8613 5.33826C15.948 5.3277 16.6963 6.62366 16.6438 6.69354C16.5532 6.81396 15.5466 8.03473 15.0781 8.53082L14.7566 8.8714L14.8123 9.33655C14.8386 9.55536 14.8518 9.77673 14.8518 10C14.8518 10.2233 14.8386 10.4446 14.8123 10.6635L14.7566 11.1286L15.0781 11.4692C15.5466 11.9653 16.5532 13.186 16.6438 13.3065C16.6963 13.3763 15.9126 14.668 15.8613 14.6617C15.7117 14.6434 14.1511 14.382 13.4873 14.2243L13.0303 14.1158L12.6548 14.3982C12.3008 14.6647 11.9155 14.8876 11.5081 15.0616L11.0767 15.2456L10.9424 15.6949C10.7471 16.3484 10.1934 17.8297 10.1343 17.9684C10.1001 18.0487 8.60376 18.0487 8.56958 17.9683C8.5105 17.8297 7.95703 16.3484 7.76172 15.6951L7.6272 15.2457L7.1958 15.0616C6.78833 14.8878 6.40332 14.6648 6.04907 14.3983L5.67358 14.1159L5.21655 14.2245C4.55273 14.3821 2.99219 14.6436 2.84253 14.6618C2.75562 14.6724 2.00732 13.3763 2.06006 13.3065C2.15063 13.186 3.15723 11.9654 3.62549 11.4694L3.94727 11.1288L3.89136 10.6636C3.86523 10.4448 3.85181 10.2233 3.85181 10C3.85181 9.77667 3.86523 9.55524 3.89136 9.33636L3.94727 8.87122L3.62549 8.53058C3.15723 8.03461 2.15063 6.81396 2.06006 6.69348C2.00732 6.62366 2.75562 5.32764 2.84253 5.3382C2.99219 5.35645 4.55273 5.61786 5.21655 5.77551L5.67358 5.88409L6.04907 5.60168C6.40332 5.33521 6.78833 5.11224 7.1958 4.93835L7.6272 4.75433L7.76172 4.30493C7.95703 3.65161 8.5105 2.17035 8.56958 2.03168C8.60376 1.95129 10.1001 1.95129 10.1343 2.03162C10.1934 2.17029 10.7471 3.65161 10.9424 4.30505ZM9.35181 13C7.69507 13 6.35181 11.6569 6.35181 10C6.35181 8.34314 7.69507 7 9.35181 7C11.0088 7 12.3518 8.34314 12.3518 10C12.3518 11.6569 11.0088 13 9.35181 13ZM10.3518 10C10.3518 10.5523 9.90405 11 9.35181 11C8.79956 11 8.35181 10.5523 8.35181 10C8.35181 9.44769 8.79956 9 9.35181 9C9.90405 9 10.3518 9.44769 10.3518 10Z" clip-rule="evenodd" fill="#000000" fill-opacity="1.000000" fill-rule="evenodd"/>
	</g>
</svg>
