<svg width="5.000000" height="19.000000" viewBox="0 0 5 19" fill="none" xmlns="http://www.w3.org/2000/svg" xmlns:xlink="http://www.w3.org/1999/xlink">
	<desc>
			Created with Pixso.
	</desc>
	<defs/>
	<path id="Combined Shape" d="M2.5 0C3.88062 0 5 1.11929 5 2.5C5 3.88071 3.88062 5 2.5 5C1.11938 5 0 3.88071 0 2.5C0 1.11929 1.11938 0 2.5 0ZM5 9.5C5 8.11929 3.88062 7 2.5 7C1.11938 7 0 8.11929 0 9.5C0 10.8807 1.11938 12 2.5 12C3.88062 12 5 10.8807 5 9.5ZM5 16.5C5 15.1193 3.88062 14 2.5 14C1.11938 14 0 15.1193 0 16.5C0 17.8807 1.11938 19 2.5 19C3.88062 19 5 17.8807 5 16.5Z" clip-rule="evenodd" fill="#000000" fill-opacity="1.000000" fill-rule="evenodd"/>
</svg>
