<svg width="37.000000" height="25.000000" viewBox="0 0 37 25" fill="none" xmlns="http://www.w3.org/2000/svg" xmlns:xlink="http://www.w3.org/1999/xlink">
	<desc>
			Created with Pixso.
	</desc>
	<defs/>
	<path id="Shape" d="M19.1906 24.9587L11.6735 24.8231C11.1986 24.8139 10.7236 24.8101 10.2489 24.8063C8.28967 24.7905 6.33411 24.7748 4.41345 24.3809C0.783447 23.6498 0.526245 20.0648 0.257202 17.0578C-0.113647 12.8302 0.0299072 8.52594 0.729614 4.33372C1.12427 1.98112 2.6792 0.57782 5.08325 0.42453C13.1984 -0.129715 21.3674 -0.0648651 29.4646 0.194565C30.3198 0.218155 31.1809 0.34787 32.0242 0.495285C36.1864 1.21461 36.2881 5.27711 36.5573 8.69693C36.8263 12.1521 36.7126 15.625 36.1984 19.0566C35.7858 21.8986 34.9963 24.2807 31.6654 24.5106C27.4912 24.8113 23.4126 25.0531 19.2264 24.9764C19.2264 24.9587 19.2025 24.9587 19.1906 24.9587ZM24.1302 12.4646C21.0026 14.2335 17.9167 15.9847 14.7712 17.7653L14.7712 7.16391C17.8988 8.93279 20.9786 10.684 24.1302 12.4646Z" clip-rule="evenodd" fill="#FF0000" fill-opacity="1.000000" fill-rule="evenodd"/>
</svg>
