<svg width="19.000000" height="18.000000" viewBox="0 0 19 18" fill="none" xmlns="http://www.w3.org/2000/svg" xmlns:xlink="http://www.w3.org/1999/xlink">
	<desc>
			Created with Pixso.
	</desc>
	<defs/>
	<g opacity="0.240000">
		<path id="Star-7" d="M15.5881 16.1776C15.8047 17.4345 14.7119 18.2242 13.5793 17.6312C13.5793 17.6312 9.32642 15.4276 9.36768 15.4059L5.11768 17.6312C3.98438 18.2246 2.89258 17.4335 3.10889 16.1776C3.10889 16.1776 3.89893 11.4682 3.93237 11.5007L0.494141 8.16277C-0.422852 7.27264 -0.00463867 5.994 1.26147 5.81078C1.26147 5.81078 6.00269 5.10388 5.98193 5.14558L8.10693 0.85733C8.67358 -0.286209 10.0239 -0.285339 10.5901 0.85733C10.5901 0.85733 12.7302 5.12981 12.6841 5.12312L17.4355 5.81078C18.7026 5.99414 19.1191 7.27332 18.2029 8.16277C18.2029 8.16277 14.7844 11.5102 14.7766 11.4644L15.5881 16.1776ZM8.50513 13.7718L5.09644 15.5573L5.74756 11.7764C5.84277 11.2241 5.63013 10.5708 5.22632 10.1787L2.46851 7.50163L6.27954 6.95009C6.83643 6.86951 7.39453 6.46637 7.64429 5.96262L9.34961 2.52567L11.0527 5.96262C11.3018 6.46516 11.8594 6.86931 12.4175 6.95009L16.2241 7.50565L13.4707 10.1787C13.0679 10.5699 12.8542 11.2228 12.9495 11.7764L13.6091 15.561L10.1919 13.7718C9.69385 13.511 9.00439 13.5104 8.50513 13.7718Z" clip-rule="evenodd" fill="#000000" fill-opacity="1.000000" fill-rule="evenodd"/>
	</g>
</svg>
