<svg width="22.000000" height="16.000000" viewBox="0 0 22 16" fill="none" xmlns="http://www.w3.org/2000/svg" xmlns:xlink="http://www.w3.org/1999/xlink">
	<desc>
			Created with Pixso.
	</desc>
	<defs/>
	<g opacity="0.240000">
		<path id="Combined-Shape" d="M10.9998 0.888977C11.7676 0.888977 12.1074 0.810944 12.9033 0.523285L12.9656 0.500824C13.9702 0.137543 14.5674 0 15.5544 0C17.9492 0 20.1475 2.28259 21.0566 5.06479C21.7544 7.19958 21.9407 8.56702 21.9998 11.5728C21.9414 14.4925 20.6587 15.9856 18.3279 16C16.885 15.9918 15.8875 15.363 14.9656 14.2208C14.8154 14.0348 14.3877 13.4639 14.3865 13.4625C13.4375 12.235 12.4563 11.5652 11.0027 11.5555C9.54321 11.5652 8.56201 12.235 7.61304 13.4625C7.61206 13.4639 7.18433 14.0348 7.03418 14.2208C6.1123 15.363 5.11475 15.9918 3.66064 16C1.34082 15.9856 0.0583496 14.4925 0 11.5385C0.059082 8.56702 0.245361 7.19958 0.943115 5.06479C1.85229 2.28259 4.05054 0 6.44531 0C7.43237 0 8.02954 0.137543 9.03418 0.500824C9.06543 0.512115 9.06543 0.512115 9.09619 0.523285C9.89209 0.810944 10.2319 0.888977 10.9998 0.888977ZM8.45605 2.18912C9.44189 2.54547 10.0813 2.66675 10.9998 2.66675C11.9182 2.66675 12.5579 2.54547 13.5437 2.18912C13.575 2.1778 13.575 2.1778 13.6062 2.16656C14.4238 1.87088 14.8281 1.77777 15.5544 1.77777C16.9795 1.77777 18.6138 3.47491 19.3091 5.6019C19.9465 7.55255 20.1108 8.75827 20.1667 11.5727C20.1262 13.5619 19.5657 14.2146 18.3274 14.2222C17.5535 14.2177 17.0195 13.8811 16.4092 13.125C16.2832 12.9691 15.8721 12.4202 15.8535 12.3961C14.5952 10.7687 13.1641 9.79184 10.9941 9.77783C8.83569 9.79184 7.4043 10.7687 6.14624 12.3961C6.12744 12.4202 5.71631 12.9691 5.59058 13.125C4.98022 13.8811 4.44604 14.2177 3.66113 14.2222C2.43408 14.2146 1.87329 13.5619 1.83301 11.5384C1.88892 8.75827 2.05322 7.55255 2.69067 5.6019C3.38574 3.47491 5.02026 1.77777 6.44531 1.77777C7.17163 1.77777 7.57593 1.87088 8.39355 2.16656C8.42456 2.1778 8.42456 2.1778 8.45605 2.18912ZM15.5833 5.77777C15.0769 5.77777 14.6665 5.37982 14.6665 4.88889C14.6665 4.39798 15.0769 4 15.5833 4C16.0894 4 16.4998 4.39798 16.4998 4.88889C16.4998 5.37982 16.0894 5.77777 15.5833 5.77777ZM15.5833 9.33334C15.0769 9.33334 14.6665 8.93536 14.6665 8.44446C14.6665 7.95352 15.0769 7.55554 15.5833 7.55554C16.0894 7.55554 16.4998 7.95352 16.4998 8.44446C16.4998 8.93536 16.0894 9.33334 15.5833 9.33334ZM17.4165 7.55554C16.9102 7.55554 16.4998 7.15759 16.4998 6.66666C16.4998 6.17575 16.9102 5.77777 17.4165 5.77777C17.9229 5.77777 18.3333 6.17575 18.3333 6.66666C18.3333 7.15759 17.9229 7.55554 17.4165 7.55554ZM13.7498 7.55554C13.2437 7.55554 12.8333 7.15759 12.8333 6.66666C12.8333 6.17575 13.2437 5.77777 13.7498 5.77777C14.2561 5.77777 14.6665 6.17575 14.6665 6.66666C14.6665 7.15759 14.2561 7.55554 13.7498 7.55554ZM6.4165 9.33334C4.89771 9.33334 3.6665 8.13943 3.6665 6.66666C3.6665 5.19391 4.89771 4 6.4165 4C7.9353 4 9.1665 5.19391 9.1665 6.66666C9.1665 8.13943 7.9353 9.33334 6.4165 9.33334ZM6.4165 7.55554C5.91016 7.55554 5.49976 7.15759 5.49976 6.66666C5.49976 6.17575 5.91016 5.77777 6.4165 5.77777C6.92285 5.77777 7.33325 6.17575 7.33325 6.66666C7.33325 7.15759 6.92285 7.55554 6.4165 7.55554Z" clip-rule="evenodd" fill="#000000" fill-opacity="1.000000" fill-rule="evenodd"/>
	</g>
</svg>
