<svg width="20.000000" height="18.000000" viewBox="0 0 20 18" fill="none" xmlns="http://www.w3.org/2000/svg" xmlns:xlink="http://www.w3.org/1999/xlink">
	<desc>
			Created with Pixso.
	</desc>
	<defs/>
	<g opacity="0.240000">
		<path id="Combined-Shape" d="M3.63647 2.69743C3.63647 1.20746 4.85742 0 6.36353 0L17.2727 0C18.78 0 20 1.21111 20 2.70439L20 4.5024C20 4.99813 19.5964 5.4 19.0908 5.4L16.3635 5.4L16.3635 15.3045C16.3635 16.7944 15.1423 18 13.6365 18L2.72729 18C1.22412 18 0 16.7912 0 15.3L0 13.4991C0 13.0042 0.406982 12.6 0.90918 12.6L3.63647 12.6L3.63647 2.69743ZM5.30005 16.2C5.40015 15.9193 5.45459 15.6172 5.45459 15.3026L5.45459 2.69743C5.45459 2.20206 5.86108 1.8 6.36353 1.8C6.86401 1.8 7.27271 2.2043 7.27271 2.7L7.27271 4.50094C7.27271 4.99747 7.67627 5.4 8.18188 5.4L14.5454 5.4L14.5454 15.3045C14.5454 15.7991 14.1394 16.2 13.6365 16.2L5.30005 16.2ZM9.09082 3.6L9.09082 2.7C9.09082 2.38443 9.03613 2.0815 8.9353 1.8L17.2727 1.8C17.7747 1.8 18.1819 2.20415 18.1819 2.70439L18.1819 3.6L9.09082 3.6ZM1.81812 14.4L1.81812 15.3C1.81812 15.7957 2.22681 16.2 2.72729 16.2C3.22974 16.2 3.63647 15.7979 3.63647 15.3026L3.63647 14.4L1.81812 14.4Z" clip-rule="evenodd" fill="#000000" fill-opacity="1.000000" fill-rule="evenodd"/>
	</g>
</svg>
