<svg width="20.000000" height="19.000000" viewBox="0 0 20 19" fill="none" xmlns="http://www.w3.org/2000/svg" xmlns:xlink="http://www.w3.org/1999/xlink">
	<desc>
			Created with Pixso.
	</desc>
	<defs/>
	<path id="Combined-Shape" d="M1.552 10.5921C1.19678 10.9455 0.621338 10.9455 0.266357 10.5921C-0.0888672 10.2388 -0.0888672 9.66595 0.266357 9.31262L9.35718 0.264999C9.71216 -0.0883331 10.2878 -0.0883331 10.6428 0.264999L19.7336 9.31262C20.0889 9.66595 20.0889 10.2388 19.7336 10.5921C19.3787 10.9455 18.8032 10.9455 18.448 10.5921L18.1819 10.3274L18.1819 17.1945C18.1819 18.1933 17.3689 19 16.3628 19L3.63721 19C2.63354 19 1.81812 18.1934 1.81812 17.1945L1.81812 10.3274L1.552 10.5921ZM6.36353 17.191L3.63721 17.1905C3.63721 17.1905 3.63623 10.2308 3.63623 8.51949L10 2.19167L16.3635 8.51944L16.3635 17.1945L13.6365 17.1929L13.6365 11.7597C13.6365 11.261 13.2305 10.8571 12.73 10.8571L7.27002 10.8571C6.77026 10.8571 6.36353 11.2612 6.36353 11.7597L6.36353 17.191ZM11.8181 12.6653L11.8181 17.1923L8.18188 17.1914L8.18188 12.6667L11.8181 12.6653Z" clip-rule="evenodd" fill="#FF0000" fill-opacity="1.000000" fill-rule="evenodd"/>
</svg>
