<svg width="20.000000" height="16.000000" viewBox="0 0 20 16" fill="none" xmlns="http://www.w3.org/2000/svg" xmlns:xlink="http://www.w3.org/1999/xlink">
	<desc>
			Created with Pixso.
	</desc>
	<defs/>
	<g opacity="0.240000">
		<path id="Combined-Shape" d="M1.81372 0C0.818115 0 0 0.793983 0 1.77341L0 14.2266C0 15.2066 0.814453 16 1.81909 16L18.1809 16C19.1851 16 20 15.2042 20 14.2225L20 4.44412C20 3.4608 19.1843 2.66667 18.1782 2.66667L10.0034 2.66667L8.71582 0.742817C8.44092 0.332344 7.81079 0 7.30762 0L1.81372 0ZM1.81812 14.2266L18.1809 14.2222L18.1819 4.44412L10.0034 4.44444C9.39014 4.44444 8.81812 4.14204 8.48218 3.64019L7.27271 1.78212L1.81372 1.77778L1.81812 14.2266Z" clip-rule="evenodd" fill="#000000" fill-opacity="1.000000" fill-rule="evenodd"/>
	</g>
</svg>
