<svg width="18.000000" height="17.000000" viewBox="0 0 18 17" fill="none" xmlns="http://www.w3.org/2000/svg" xmlns:xlink="http://www.w3.org/1999/xlink">
	<desc>
			Created with Pixso.
	</desc>
	<defs/>
	<g opacity="0.240000">
		<path id="Combined-Shape" d="M12.6001 0C11.217 0 9.95532 0.530869 9 1.40392C8.04468 0.530869 6.78296 0 5.3999 0C2.41772 0 0 2.46849 0 5.51352C0 9.95786 4.48071 14.2534 8.62061 16.7596C8.83008 16.8923 9.1731 16.8905 9.38208 16.7577C13.4946 14.2432 18 9.95763 18 5.51352C18 2.46849 15.5823 0 12.6001 0ZM1.80005 5.51352C1.80005 8.3844 4.55469 11.8546 9.00513 14.8252C13.4556 11.8546 16.2 8.45824 16.2 5.51352C16.2 3.48349 14.5881 1.83784 12.6001 1.83784C11.7004 1.83784 10.8567 2.1736 10.2004 2.77335L9.33447 3.56479C9.14966 3.73355 8.85278 3.73584 8.66553 3.56479L7.79956 2.77335C7.14331 2.1736 6.29956 1.83784 5.3999 1.83784C3.41187 1.83784 1.80005 3.48349 1.80005 5.51352Z" clip-rule="evenodd" fill="#000000" fill-opacity="1.000000" fill-rule="evenodd"/>
	</g>
</svg>
