<svg width="18.000244" height="20.000214" viewBox="0 0 18.0002 20.0002" fill="none" xmlns="http://www.w3.org/2000/svg" xmlns:xlink="http://www.w3.org/1999/xlink">
	<desc>
			Created with Pixso.
	</desc>
	<defs/>
	<g opacity="0.240000">
		<path id="Combined-Shape" d="M14.8501 17.2729C16.5896 17.2729 18 15.8484 18 14.0911L18 0.929291C18.0015 0.854309 17.9939 0.777893 17.9761 0.701508C17.8625 0.212738 17.3782 -0.0904846 16.8943 0.0242615L5.22803 2.79092C4.82617 2.8862 4.55127 3.23962 4.5 3.63657L4.5 13.9427C4.09082 13.7464 3.63306 13.6366 3.1499 13.6366C1.4104 13.6366 0 15.0611 0 16.8184C0 18.5757 1.4104 20.0002 3.1499 20.0002C4.88965 20.0002 6.30005 18.5757 6.30005 16.8184L6.30005 8.04071L16.2 5.6929L16.2 11.2155C15.7908 11.0192 15.333 10.9093 14.8501 10.9093C13.1104 10.9093 11.7 12.3338 11.7 14.0911C11.7 15.8484 13.1104 17.2729 14.8501 17.2729ZM6.30005 6.17307L6.30005 4.40433L16.2 2.05655L16.2 3.82529L6.30005 6.17307ZM16.2 14.0911C16.2 13.338 15.5957 12.7275 14.8501 12.7275C14.1045 12.7275 13.5 13.338 13.5 14.0911C13.5 14.8442 14.1045 15.4547 14.8501 15.4547C15.5957 15.4547 16.2 14.8442 16.2 14.0911ZM3.1499 15.4547C3.89551 15.4547 4.5 16.0653 4.5 16.8184C4.5 17.5715 3.89551 18.182 3.1499 18.182C2.4043 18.182 1.80005 17.5715 1.80005 16.8184C1.80005 16.0653 2.4043 15.4547 3.1499 15.4547Z" clip-rule="evenodd" fill="#000000" fill-opacity="1.000000" fill-rule="evenodd"/>
	</g>
</svg>
