<svg width="18.000000" height="18.000000" viewBox="0 0 18 18" fill="none" xmlns="http://www.w3.org/2000/svg" xmlns:xlink="http://www.w3.org/1999/xlink">
	<desc>
			Created with Pixso.
	</desc>
	<defs/>
	<g opacity="0.240000">
		<path id="Combined-Shape" d="M3.90552 1C3.90552 0.447716 4.35474 0 4.90088 0L12.9102 0C13.46 0 13.9055 0.443863 13.9055 1C13.9055 1.55228 13.4565 2 12.9102 2L4.90088 2C4.35132 2 3.90552 1.55614 3.90552 1ZM2.90112 3C2.35547 3 1.90552 3.44772 1.90552 4C1.90552 4.55614 2.35132 5 2.90112 5L14.9099 5C15.4556 5 15.9055 4.55228 15.9055 4C15.9055 3.44386 15.46 3 14.9099 3L2.90112 3ZM0.811035 16.1041L0.0100098 8.0949C-0.10376 6.95576 0.759277 6 1.90649 6L15.9048 6C17.0496 6 17.9153 6.95379 17.801 8.0949L17.0002 16.1041C16.8943 17.1632 15.9712 18 14.9099 18L2.90112 18C1.83594 18 0.917236 17.1665 0.811035 16.1041ZM2.01099 8.00421L15.7998 8.0079L14.9055 16L2.90552 16L2.01099 8.00421Z" clip-rule="evenodd" fill="#000000" fill-opacity="1.000000" fill-rule="evenodd"/>
	</g>
</svg>
