<svg width="16.000000" height="21.000000" viewBox="0 0 16 21" fill="none" xmlns="http://www.w3.org/2000/svg" xmlns:xlink="http://www.w3.org/1999/xlink">
	<desc>
			Created with Pixso.
	</desc>
	<defs/>
	<g opacity="0.240000">
		<path id="Path-957-Copy" d="M16 12.321C16 10.1175 15.1323 8.51081 13.615 7.20041C13.1743 6.81985 11.9871 5.97382 11.8923 5.88709C10.5122 4.62244 9.98413 3.44851 10.4966 1.26649C10.6943 0.424515 9.84619 -0.273346 9.08643 0.105957C5.80371 1.74433 4.47241 5.19295 4.729 8.25935C4.34424 7.69187 4.08032 6.95167 3.99438 6.08209C3.89868 5.11434 2.66357 4.81522 2.15503 5.6366C0.547607 8.23242 0 9.79412 0 12.321C0 16.9093 3.60571 20.5268 8.01147 20.5268C12.4133 20.5268 16 16.9118 16 12.321ZM2.71631 8.78204C2.42261 9.49415 2 10.2348 2 12.321C2 15.7681 4.70117 18.478 8.01147 18.478C11.3159 18.478 14 15.7728 14 12.321C14 10.7811 13.4246 9.71578 12.3259 8.76678C11.9883 8.47536 10.7686 7.60622 10.5591 7.41416C9.23389 6.20001 8.42383 4.9071 8.31372 3.18307C7.6438 3.85213 6.10425 5.93208 6.97192 10.0484C7.10645 10.6865 6.63184 11.289 5.99463 11.289C4.72998 11.289 3.48022 10.2984 2.71631 8.78204Z" clip-rule="evenodd" fill="#000000" fill-opacity="1.000000" fill-rule="evenodd"/>
	</g>
</svg>
