<svg width="17.000000" height="19.000000" viewBox="0 0 17 19" fill="none" xmlns="http://www.w3.org/2000/svg" xmlns:xlink="http://www.w3.org/1999/xlink">
	<desc>
			Created with Pixso.
	</desc>
	<defs/>
	<g opacity="0.240000">
		<path id="Shape" d="M12.7263 16.7342C11.5 17.5193 10.0515 17.973 8.5 17.973C6.94849 17.973 5.5 17.5193 4.27368 16.7342L3.36548 18.3497C3.0896 18.8405 2.48169 19.0104 2 18.7248C1.52173 18.4412 1.35571 17.817 1.63354 17.3227C1.63354 17.3227 2.68262 15.4627 2.70996 15.4264C1.34082 13.9519 0.5 11.9552 0.5 9.75676C0.5 8.53311 0.760498 7.37196 1.22754 6.32855C0.476318 5.66925 0 4.68904 0 3.59459C0 1.60936 1.56689 0 3.5 0C4.79321 0 5.92285 0.720428 6.52881 1.79185C7.15918 1.62775 7.81982 1.54054 8.5 1.54054C9.11523 1.54054 9.71411 1.61183 10.2893 1.74683C10.9011 0.700302 12.0171 0 13.292 0C15.2251 0 16.792 1.60936 16.792 3.59459C16.792 4.61644 16.377 5.5387 15.7104 6.19316C16.2163 7.27113 16.5 8.47993 16.5 9.75676C16.5 11.9552 15.6592 13.9519 14.29 15.4264C14.3174 15.4627 15.3665 17.3227 15.3665 17.3227C15.6443 17.817 15.4783 18.4412 15 18.7248C14.5183 19.0104 13.9104 18.8405 13.6345 18.3497L12.7263 16.7342ZM2 3.59459C2 2.74377 2.67163 2.05405 3.5 2.05405C3.93921 2.05405 4.34253 2.24979 4.62061 2.56955C3.73633 3.07397 2.95508 3.74545 2.31714 4.54247C2.11719 4.27878 2 3.9482 2 3.59459ZM14.792 3.59459C14.792 2.74377 14.1206 2.05405 13.292 2.05405C12.8889 2.05405 12.5161 2.21892 12.2427 2.49324C13.1306 2.97681 13.9192 3.62706 14.5688 4.40341C14.7112 4.1665 14.792 3.8885 14.792 3.59459ZM8.5 15.9189C5.18628 15.9189 2.5 13.16 2.5 9.75676C2.5 6.35349 5.18628 3.59459 8.5 3.59459C11.8137 3.59459 14.5 6.35349 14.5 9.75676C14.5 13.16 11.8137 15.9189 8.5 15.9189ZM8.5 4.62163C7.94385 4.62163 7.5 5.08134 7.5 5.64845L7.5 8.72974L6.49902 8.72974C5.94336 8.72974 5.5 9.18954 5.5 9.75676C5.5 10.3279 5.94727 10.7838 6.49902 10.7838L8.50098 10.7838C9.05664 10.7838 9.5 10.324 9.5 9.75676L9.5 5.64845C9.5 5.07733 9.05225 4.62163 8.5 4.62163Z" clip-rule="evenodd" fill="#000000" fill-opacity="1.000000" fill-rule="evenodd"/>
	</g>
</svg>
