<svg width="10.000000" height="7.000000" viewBox="0 0 10 7" fill="none" xmlns="http://www.w3.org/2000/svg" xmlns:xlink="http://www.w3.org/1999/xlink">
	<desc>
			Created with Pixso.
	</desc>
	<defs/>
	<path id="Right Arrow" d="M9.76245 0.79837L9.28125 0.263702C9.11426 0.0879288 8.91956 0 8.69714 0C8.47021 0 8.27771 0.0879288 8.11938 0.263702L5 3.72813L1.88062 0.263786C1.72229 0.0880203 1.52979 8.39233e-05 1.30298 8.39233e-05C1.08044 8.39233e-05 0.885742 0.0880203 0.718872 0.263786L0.243896 0.798454C0.0812988 0.978951 0 1.19524 0 1.44712C0 1.70374 0.0814209 1.91757 0.243896 2.08862L4.42236 6.72913C4.57642 6.90971 4.7688 7 5 7C5.22681 7 5.42151 6.90971 5.58398 6.72913L9.76245 2.08862C9.92065 1.91276 10 1.69893 10 1.44712C10 1.19996 9.92065 0.983765 9.76245 0.79837Z" fill="#000000" fill-opacity="1.000000" fill-rule="evenodd"/>
</svg>
